<svg width="236" height="205" viewBox="0 0 236 205" fill="none" xmlns="http://www.w3.org/2000/svg">
<g filter="url(#filter0_d_1261_7240)">
<path fill-rule="evenodd" clip-rule="evenodd" d="M88.4493 173.675C60.9563 164.822 33.7212 154.776 18.405 133.19C1.77321 109.751 -4.80961 81.7773 6.11893 57.645C17.5989 32.2949 44.1848 15.8727 74.997 8.2246C109.654 -0.377927 149.795 -5.15572 180.214 14.4316C211.189 34.3766 217.401 69.403 219.615 101.344C221.868 133.859 223.32 172.107 192.326 189.198C162.648 205.564 123.46 184.95 88.4493 173.675Z" fill="url(#paint0_radial_1261_7240)"/>
<path fill-rule="evenodd" clip-rule="evenodd" d="M88.4493 173.675C60.9563 164.822 33.7212 154.776 18.405 133.19C1.77321 109.751 -4.80961 81.7773 6.11893 57.645C17.5989 32.2949 44.1848 15.8727 74.997 8.2246C109.654 -0.377927 149.795 -5.15572 180.214 14.4316C211.189 34.3766 217.401 69.403 219.615 101.344C221.868 133.859 223.32 172.107 192.326 189.198C162.648 205.564 123.46 184.95 88.4493 173.675Z" stroke="#0A303A" stroke-width="1.5"/>
</g>
<defs>
<filter id="filter0_d_1261_7240" x="0" y="0" width="235.411" height="204.03" filterUnits="userSpaceOnUse" color-interpolation-filters="sRGB">
<feFlood flood-opacity="0" result="BackgroundImageFix"/>
<feColorMatrix in="SourceAlpha" type="matrix" values="0 0 0 0 0 0 0 0 0 0 0 0 0 0 0 0 0 0 127 0" result="hardAlpha"/>
<feOffset dx="10" dy="4"/>
<feGaussianBlur stdDeviation="2"/>
<feComposite in2="hardAlpha" operator="out"/>
<feColorMatrix type="matrix" values="0 0 0 0 0 0 0 0 0 0 0 0 0 0 0 0 0 0 0.25 0"/>
<feBlend mode="normal" in2="BackgroundImageFix" result="effect1_dropShadow_1261_7240"/>
<feBlend mode="normal" in="SourceGraphic" in2="effect1_dropShadow_1261_7240" result="shape"/>
</filter>
<radialGradient id="paint0_radial_1261_7240" cx="0" cy="0" r="1" gradientUnits="userSpaceOnUse" gradientTransform="translate(114.503 90.5604) rotate(102) scale(93.3393 114.243)">
<stop stop-color="#F4F1EA"/>
<stop offset="1" stop-color="#6BBCD2"/>
</radialGradient>
</defs>
</svg>
